<?xml version="1.0" standalone="no"?>
<!DOCTYPE svg PUBLIC "-//W3C//DTD SVG 20010904//EN"
 "http://www.w3.org/TR/2001/REC-SVG-20010904/DTD/svg10.dtd">
<svg version="1.0" xmlns="http://www.w3.org/2000/svg"
 width="1280.000000pt" height="640.000000pt" viewBox="0 0 1280.000000 640.000000"
 preserveAspectRatio="xMidYMid meet">
<metadata>
Created by potrace 1.15, written by Peter Selinger 2001-2017
</metadata>
<g transform="translate(0.000000,640.000000) scale(0.100000,-0.100000)"
fill="#fff" stroke="none">
<path d="M20 5260 c-19 -19 -20 -33 -20 -340 0 -307 1 -321 20 -340 19 -19 33
-20 340 -20 307 0 321 1 340 20 19 19 20 33 20 340 0 307 -1 321 -20 340 -19
19 -33 20 -340 20 -307 0 -321 -1 -340 -20z"/>
<path d="M902 5264 c-22 -15 -22 -16 -22 -340 0 -311 1 -325 20 -344 19 -19
33 -20 340 -20 307 0 321 1 340 20 19 19 20 33 20 340 0 307 -1 321 -20 340
-19 19 -33 20 -338 20 -271 0 -321 -2 -340 -16z"/>
<path d="M1777 5262 c-15 -17 -17 -55 -17 -345 0 -325 0 -326 22 -341 19 -14
68 -16 336 -16 l313 0 25 25 25 25 -3 321 c-3 304 -4 321 -22 335 -16 11 -80
14 -341 14 -299 0 -323 -1 -338 -18z"/>
<path d="M2657 5262 c-15 -17 -17 -55 -17 -345 0 -325 0 -326 22 -341 19 -14
68 -16 334 -16 292 0 313 1 335 19 l24 19 3 304 c2 166 0 313 -3 325 -13 53
-11 53 -359 53 -300 0 -324 -1 -339 -18z"/>
<path d="M3537 5262 c-15 -17 -17 -55 -17 -345 0 -325 0 -326 22 -341 19 -14
68 -16 333 -16 265 0 314 2 333 16 22 15 22 16 22 343 0 305 -1 329 -18 344
-17 15 -55 17 -339 17 -297 0 -321 -1 -336 -18z"/>
<path d="M4416 5264 c-9 -8 -18 -25 -21 -37 -3 -12 -5 -159 -3 -325 l3 -304
24 -19 c22 -18 43 -19 335 -19 266 0 315 2 334 16 22 15 22 16 22 343 0 305
-1 329 -18 344 -17 15 -55 17 -340 17 -278 0 -323 -2 -336 -16z"/>
<path d="M5290 5260 c-19 -19 -20 -33 -20 -335 l0 -316 25 -24 24 -25 313 0
c268 0 317 2 336 16 22 15 22 16 22 343 0 305 -1 329 -18 344 -17 15 -55 17
-340 17 -309 0 -323 -1 -342 -20z"/>
<path d="M6170 5260 c-19 -19 -20 -33 -20 -339 l0 -320 26 -20 c26 -20 38 -21
340 -21 301 0 315 1 334 20 19 19 20 33 20 344 0 324 0 325 -22 340 -19 14
-69 16 -340 16 -305 0 -319 -1 -338 -20z"/>
<path d="M7050 5260 c-19 -19 -20 -33 -20 -340 0 -307 1 -321 20 -340 19 -19
33 -20 340 -20 307 0 321 1 340 20 19 19 20 33 20 340 0 307 -1 321 -20 340
-19 19 -33 20 -340 20 -307 0 -321 -1 -340 -20z"/>
<path d="M7930 5260 c-19 -19 -20 -33 -20 -340 0 -307 1 -321 20 -340 19 -19
33 -20 340 -20 307 0 321 1 340 20 19 19 20 33 20 340 0 307 -1 321 -20 340
-19 19 -33 20 -340 20 -307 0 -321 -1 -340 -20z"/>
<path d="M8807 5262 c-15 -17 -17 -55 -17 -345 0 -325 0 -326 22 -341 19 -14
68 -16 336 -16 l313 0 24 25 25 24 0 316 c0 302 -1 316 -20 335 -19 19 -33 20
-343 20 -301 0 -325 -1 -340 -18z"/>
<path d="M9687 5262 c-15 -17 -17 -55 -17 -345 0 -325 0 -326 22 -341 19 -14
68 -16 336 -16 l313 0 25 25 25 25 -3 321 c-3 304 -4 321 -22 335 -16 11 -80
14 -341 14 -299 0 -323 -1 -338 -18z"/>
<path d="M10567 5262 c-15 -17 -17 -55 -17 -345 0 -325 0 -326 22 -341 19 -14
68 -16 333 -16 265 0 314 2 333 16 22 15 22 16 22 343 0 305 -1 329 -18 344
-17 15 -55 17 -339 17 -297 0 -321 -1 -336 -18z"/>
<path d="M11447 5262 c-15 -17 -17 -55 -17 -345 l0 -327 24 -15 c20 -14 101
-15 670 -13 628 3 648 4 662 22 11 16 14 79 14 338 0 305 -1 319 -20 338 -20
20 -33 20 -668 20 -616 0 -650 -1 -665 -18z"/>
<path d="M22 4404 c-22 -15 -22 -16 -22 -338 0 -262 3 -326 14 -342 14 -18 33
-19 499 -22 466 -2 485 -2 508 17 l24 19 3 304 c2 166 0 313 -3 325 -13 55 3
53 -518 53 -421 0 -485 -2 -505 -16z"/>
<path d="M1227 4402 c-15 -17 -17 -55 -17 -345 0 -325 0 -326 22 -341 19 -14
69 -16 339 -16 l318 0 20 26 c20 26 21 38 21 340 0 301 -1 315 -20 334 -19 19
-33 20 -343 20 -301 0 -325 -1 -340 -18z"/>
<path d="M2106 4404 c-9 -8 -16 -23 -16 -32 0 -9 0 -156 -1 -327 0 -305 1
-310 22 -327 19 -16 51 -18 336 -18 l314 0 24 25 25 24 0 306 c0 302 -3 337
-34 357 -6 4 -156 8 -333 8 -279 0 -324 -2 -337 -16z"/>
<path d="M2984 4406 c-18 -14 -19 -29 -19 -341 l0 -327 24 -19 c22 -18 43 -19
336 -19 293 0 314 1 336 19 l24 19 3 304 c2 166 0 313 -3 325 -13 53 -11 53
-359 53 -262 0 -326 -3 -342 -14z"/>
<path d="M3860 4400 c-19 -19 -20 -33 -20 -331 0 -306 3 -341 34 -361 6 -4
153 -8 326 -8 270 0 319 2 338 16 22 15 22 16 22 343 0 305 -1 329 -18 344
-17 15 -55 17 -340 17 -309 0 -323 -1 -342 -20z"/>
<path d="M4740 4400 c-19 -19 -20 -33 -20 -340 0 -307 1 -321 20 -340 19 -19
33 -20 338 -20 271 0 321 2 340 16 22 15 22 16 22 343 0 305 -1 329 -18 344
-17 15 -55 17 -340 17 -309 0 -323 -1 -342 -20z"/>
<path d="M5616 4398 c-14 -19 -16 -69 -16 -340 0 -305 1 -319 20 -338 19 -19
33 -20 340 -20 307 0 321 1 340 20 19 19 20 33 20 343 0 301 -1 325 -18 340
-17 15 -55 17 -345 17 -325 0 -326 0 -341 -22z"/>
<path d="M6497 4402 c-15 -17 -17 -55 -17 -340 0 -309 1 -323 20 -342 19 -19
33 -20 340 -20 307 0 321 1 340 20 19 19 20 33 20 338 0 271 -2 321 -16 340
-15 22 -16 22 -343 22 -305 0 -329 -1 -344 -18z"/>
<path d="M7377 4402 c-15 -17 -17 -55 -17 -345 0 -325 0 -326 22 -341 19 -14
69 -16 340 -16 305 0 319 1 338 20 19 19 20 33 20 340 0 307 -1 321 -20 340
-19 19 -33 20 -343 20 -301 0 -325 -1 -340 -18z"/>
<path d="M8257 4402 c-15 -17 -17 -55 -17 -345 0 -325 0 -326 22 -341 19 -14
68 -16 338 -16 173 0 320 4 326 8 31 20 34 55 34 361 0 298 -1 312 -20 331
-19 19 -33 20 -343 20 -301 0 -325 -1 -340 -18z"/>
<path d="M9136 4404 c-9 -8 -18 -25 -21 -37 -3 -12 -5 -159 -3 -325 l3 -304
24 -19 c22 -18 43 -19 336 -19 293 0 314 1 336 19 l24 19 0 327 c0 312 -1 327
-19 341 -16 11 -80 14 -342 14 -280 0 -325 -2 -338 -16z"/>
<path d="M10024 4412 c-31 -20 -34 -55 -34 -357 l0 -306 25 -24 24 -25 314 0
c285 0 317 2 336 18 20 17 21 24 21 327 0 171 0 318 0 327 0 9 -7 24 -16 32
-13 14 -58 16 -337 16 -177 0 -327 -4 -333 -8z"/>
<path d="M10894 4406 c-18 -14 -19 -31 -22 -335 l-3 -321 25 -25 25 -25 313 0
c268 0 317 2 336 16 22 15 22 16 22 344 0 285 -2 331 -16 344 -13 14 -58 16
-338 16 -262 0 -326 -3 -342 -14z"/>
<path d="M11776 4404 c-9 -8 -18 -25 -21 -37 -3 -12 -5 -159 -3 -325 l3 -304
24 -19 c23 -19 42 -19 508 -17 466 3 485 4 499 22 11 16 14 80 14 342 0 322 0
323 -22 338 -20 14 -84 16 -505 16 -424 0 -483 -2 -497 -16z"/>
<path d="M17 3542 c-15 -17 -17 -55 -17 -338 0 -175 4 -324 8 -330 21 -32 50
-34 652 -34 l601 0 24 25 25 24 0 316 c0 302 -1 316 -20 335 -20 20 -33 20
-638 20 -587 0 -620 -1 -635 -18z"/>
<path d="M1487 3542 c-15 -17 -17 -55 -17 -345 0 -325 0 -326 22 -341 19 -14
68 -16 336 -16 l313 0 24 25 25 24 0 316 c0 302 -1 316 -20 335 -19 19 -33 20
-343 20 -301 0 -325 -1 -340 -18z"/>
<path d="M2367 3542 c-15 -17 -17 -55 -17 -345 0 -325 0 -326 22 -341 19 -14
68 -16 336 -16 l313 0 25 25 25 25 -3 321 c-3 304 -4 321 -22 335 -16 11 -80
14 -341 14 -299 0 -323 -1 -338 -18z"/>
<path d="M3246 3544 c-14 -13 -16 -59 -16 -344 0 -328 0 -329 22 -344 19 -14
68 -16 333 -16 265 0 314 2 333 16 22 15 22 16 22 344 0 285 -2 331 -16 344
-13 14 -58 16 -339 16 -281 0 -326 -2 -339 -16z"/>
<path d="M4126 3544 c-14 -13 -16 -59 -16 -344 0 -328 0 -329 22 -344 19 -14
68 -16 333 -16 265 0 314 2 333 16 22 15 22 16 22 343 0 305 -1 329 -18 344
-17 15 -55 17 -340 17 -278 0 -323 -2 -336 -16z"/>
<path d="M5004 3546 c-18 -14 -19 -31 -22 -335 l-3 -321 25 -25 25 -25 313 0
c268 0 317 2 336 16 22 15 22 16 22 343 0 305 -1 329 -18 344 -17 15 -55 17
-338 17 -261 0 -324 -3 -340 -14z"/>
<path d="M5880 3540 c-19 -19 -20 -33 -20 -335 l0 -316 25 -24 24 -25 316 0
c302 0 316 1 335 20 19 19 20 33 20 343 0 301 -1 325 -18 340 -17 15 -55 17
-340 17 -309 0 -323 -1 -342 -20z"/>
<path d="M6760 3540 c-19 -19 -20 -33 -20 -339 0 -345 0 -343 53 -356 12 -3
161 -5 330 -3 292 3 309 4 323 22 22 31 21 642 -2 674 -15 22 -16 22 -340 22
-311 0 -325 -1 -344 -20z"/>
<path d="M7636 3538 c-23 -32 -24 -643 -2 -674 14 -18 31 -19 323 -22 169 -2
318 0 330 3 53 13 53 11 53 356 0 306 -1 320 -20 339 -19 19 -33 20 -344 20
-324 0 -325 0 -340 -22z"/>
<path d="M8517 3542 c-15 -17 -17 -55 -17 -340 0 -309 1 -323 20 -342 19 -19
33 -20 335 -20 l316 0 24 25 25 24 0 316 c0 302 -1 316 -20 335 -19 19 -33 20
-343 20 -301 0 -325 -1 -340 -18z"/>
<path d="M9397 3542 c-15 -17 -17 -55 -17 -340 0 -309 1 -323 20 -342 19 -19
33 -20 335 -20 l316 0 25 25 25 25 -3 321 c-3 304 -4 321 -22 335 -16 11 -80
14 -341 14 -299 0 -323 -1 -338 -18z"/>
<path d="M10277 3542 c-15 -17 -17 -55 -17 -345 0 -325 0 -326 22 -341 19 -14
68 -16 333 -16 265 0 314 2 333 16 22 15 22 16 22 344 0 285 -2 331 -16 344
-13 14 -58 16 -338 16 -300 0 -324 -1 -339 -18z"/>
<path d="M11156 3542 c-15 -17 -16 -52 -14 -348 l3 -328 25 -13 c20 -10 195
-13 798 -13 776 0 802 1 824 34 4 6 8 155 8 332 0 298 -1 322 -18 337 -17 16
-88 17 -814 17 -760 0 -796 -1 -812 -18z"/>
<path d="M17 2672 c-15 -17 -17 -55 -17 -339 0 -297 1 -321 18 -336 17 -16 84
-17 753 -17 619 0 738 2 755 14 18 14 19 29 19 339 0 260 -3 327 -14 340 -12
16 -77 17 -756 17 -706 0 -743 -1 -758 -18z"/>
<path d="M1722 2678 c-17 -17 -17 -669 0 -686 17 -17 669 -17 686 0 17 17 17
669 0 686 -17 17 -669 17 -686 0z"/>
<path d="M2602 2678 c-17 -17 -17 -669 0 -686 17 -17 669 -17 686 0 17 17 17
669 0 686 -17 17 -669 17 -686 0z"/>
<path d="M3476 2668 c-14 -19 -16 -68 -16 -333 0 -265 2 -314 16 -333 15 -22
16 -22 344 -22 285 0 331 2 344 16 14 13 16 58 16 339 0 281 -2 326 -16 339
-13 14 -59 16 -344 16 -328 0 -329 0 -344 -22z"/>
<path d="M4356 2668 c-14 -19 -16 -68 -16 -333 0 -265 2 -314 16 -333 15 -22
16 -22 344 -22 285 0 331 2 344 16 14 13 16 58 16 339 0 281 -2 326 -16 339
-13 14 -59 16 -344 16 -328 0 -329 0 -344 -22z"/>
<path d="M5236 2668 c-14 -19 -16 -68 -16 -333 0 -265 2 -314 16 -333 15 -22
16 -22 343 -22 305 0 329 1 344 18 15 17 17 55 17 339 0 297 -1 321 -18 336
-17 15 -55 17 -345 17 -325 0 -326 0 -341 -22z"/>
<path d="M6117 2672 c-15 -17 -17 -55 -17 -339 0 -297 1 -321 18 -336 17 -15
55 -17 344 -17 302 0 326 1 341 18 15 17 17 55 17 339 0 297 -1 321 -18 336
-17 15 -55 17 -344 17 -302 0 -326 -1 -341 -18z"/>
<path d="M6997 2672 c-15 -17 -17 -55 -17 -339 0 -297 1 -321 18 -336 17 -15
55 -17 345 -17 325 0 326 0 341 22 14 19 16 68 16 333 0 265 -2 314 -16 333
-15 22 -16 22 -343 22 -305 0 -329 -1 -344 -18z"/>
<path d="M7876 2674 c-14 -13 -16 -58 -16 -339 0 -281 2 -326 16 -339 13 -14
59 -16 344 -16 328 0 329 0 344 22 14 19 16 68 16 333 0 265 -2 314 -16 333
-15 22 -16 22 -344 22 -285 0 -331 -2 -344 -16z"/>
<path d="M8750 2671 c-6 -13 -10 -137 -10 -336 0 -199 4 -323 10 -336 10 -18
25 -19 344 -19 298 0 335 2 347 17 11 13 14 80 14 338 0 258 -3 325 -14 338
-12 15 -49 17 -347 17 -319 0 -334 -1 -344 -19z"/>
<path d="M9632 2678 c-9 -9 -12 -99 -12 -343 0 -244 3 -334 12 -343 17 -17
669 -17 686 0 17 17 17 669 0 686 -17 17 -669 17 -686 0z"/>
<path d="M10512 2678 c-9 -9 -12 -98 -12 -339 0 -284 2 -330 16 -343 14 -14
130 -16 1133 -16 1070 0 1119 1 1134 18 15 17 17 55 17 339 0 297 -1 321 -18
336 -17 16 -110 17 -1138 17 -858 0 -1123 -3 -1132 -12z"/>
<path d="M20 1820 c-19 -19 -20 -33 -20 -340 0 -307 1 -321 20 -340 19 -19 33
-20 503 -20 479 0 484 0 503 21 18 20 19 40 19 341 l0 320 -24 19 c-22 18 -45
19 -502 19 -466 0 -480 -1 -499 -20z"/>
<path d="M1232 1824 c-22 -15 -22 -16 -22 -343 0 -305 1 -329 18 -344 17 -15
55 -17 338 -17 175 0 324 4 330 8 31 20 34 55 34 357 l0 306 -25 24 -24 25
-313 0 c-268 0 -317 -2 -336 -16z"/>
<path d="M2112 1824 c-22 -15 -22 -15 -22 -344 0 -329 0 -329 22 -344 20 -14
84 -16 498 -16 414 0 478 2 498 16 22 15 22 15 22 344 0 329 0 329 -22 344
-20 14 -84 16 -498 16 -414 0 -478 -2 -498 -16z"/>
<path d="M3315 1815 l-25 -24 0 -309 c0 -298 1 -310 21 -336 l20 -26 2822 0
c1552 0 2827 4 2833 8 31 20 34 55 34 357 l0 306 -25 24 -24 25 -2816 0 -2816
0 -24 -25z"/>
<path d="M9142 1824 c-22 -15 -22 -16 -22 -343 0 -305 1 -329 18 -344 17 -15
55 -17 339 -17 297 0 321 1 336 18 15 17 17 55 17 345 0 325 0 326 -22 341
-19 14 -68 16 -333 16 -265 0 -314 -2 -333 -16z"/>
<path d="M10022 1824 c-22 -15 -22 -16 -22 -343 0 -305 1 -329 18 -344 17 -15
55 -17 339 -17 297 0 321 1 336 18 15 17 17 55 17 345 0 325 0 326 -22 341
-19 14 -68 16 -333 16 -265 0 -314 -2 -333 -16z"/>
<path d="M10902 1824 c-22 -15 -22 -15 -22 -344 0 -329 0 -329 22 -344 20 -14
84 -16 500 -16 465 0 479 1 498 20 19 19 20 33 20 340 0 307 -1 321 -20 340
-19 19 -33 20 -498 20 -416 0 -480 -2 -500 -16z"/>
<path d="M12100 1820 c-19 -19 -20 -33 -20 -340 0 -307 1 -321 20 -340 19 -19
33 -20 340 -20 307 0 321 1 340 20 19 19 20 33 20 340 0 307 -1 321 -20 340
-19 19 -33 20 -340 20 -307 0 -321 -1 -340 -20z"/>
</g>
</svg>
