<svg id="visual" viewBox="0 0 900 600" width="900" height="600" xmlns="http://www.w3.org/2000/svg" xmlns:xlink="http://www.w3.org/1999/xlink" version="1.1"><path d="M0 19L18.8 19C37.7 19 75.3 19 112.8 19C150.3 19 187.7 19 225.2 22C262.7 25 300.3 31 337.8 35C375.3 39 412.7 41 450.2 40C487.7 39 525.3 35 562.8 31C600.3 27 637.7 23 675.2 24C712.7 25 750.3 31 787.8 33C825.3 35 862.7 33 881.3 32L900 31L900 0L881.3 0C862.7 0 825.3 0 787.8 0C750.3 0 712.7 0 675.2 0C637.7 0 600.3 0 562.8 0C525.3 0 487.7 0 450.2 0C412.7 0 375.3 0 337.8 0C300.3 0 262.7 0 225.2 0C187.7 0 150.3 0 112.8 0C75.3 0 37.7 0 18.8 0L0 0Z" fill="#f3f3f3"></path><path d="M0 67L18.8 66C37.7 65 75.3 63 112.8 59C150.3 55 187.7 49 225.2 51C262.7 53 300.3 63 337.8 70C375.3 77 412.7 81 450.2 78C487.7 75 525.3 65 562.8 60C600.3 55 637.7 55 675.2 57C712.7 59 750.3 63 787.8 63C825.3 63 862.7 59 881.3 57L900 55L900 29L881.3 30C862.7 31 825.3 33 787.8 31C750.3 29 712.7 23 675.2 22C637.7 21 600.3 25 562.8 29C525.3 33 487.7 37 450.2 38C412.7 39 375.3 37 337.8 33C300.3 29 262.7 23 225.2 20C187.7 17 150.3 17 112.8 17C75.3 17 37.7 17 18.8 17L0 17Z" fill="#e9e9e9"></path><path d="M0 139L18.8 135C37.7 131 75.3 123 112.8 119C150.3 115 187.7 115 225.2 119C262.7 123 300.3 131 337.8 132C375.3 133 412.7 127 450.2 118C487.7 109 525.3 97 562.8 98C600.3 99 637.7 113 675.2 120C712.7 127 750.3 127 787.8 124C825.3 121 862.7 115 881.3 112L900 109L900 53L881.3 55C862.7 57 825.3 61 787.8 61C750.3 61 712.7 57 675.2 55C637.7 53 600.3 53 562.8 58C525.3 63 487.7 73 450.2 76C412.7 79 375.3 75 337.8 68C300.3 61 262.7 51 225.2 49C187.7 47 150.3 53 112.8 57C75.3 61 37.7 63 18.8 64L0 65Z" fill="#dedede"></path><path d="M0 217L18.8 212C37.7 207 75.3 197 112.8 194C150.3 191 187.7 195 225.2 199C262.7 203 300.3 207 337.8 207C375.3 207 412.7 203 450.2 193C487.7 183 525.3 167 562.8 167C600.3 167 637.7 183 675.2 194C712.7 205 750.3 211 787.8 208C825.3 205 862.7 193 881.3 187L900 181L900 107L881.3 110C862.7 113 825.3 119 787.8 122C750.3 125 712.7 125 675.2 118C637.7 111 600.3 97 562.8 96C525.3 95 487.7 107 450.2 116C412.7 125 375.3 131 337.8 130C300.3 129 262.7 121 225.2 117C187.7 113 150.3 113 112.8 117C75.3 121 37.7 129 18.8 133L0 137Z" fill="#d4d4d4"></path><path d="M0 259L18.8 256C37.7 253 75.3 247 112.8 245C150.3 243 187.7 245 225.2 244C262.7 243 300.3 239 337.8 239C375.3 239 412.7 243 450.2 238C487.7 233 525.3 219 562.8 218C600.3 217 637.7 229 675.2 237C712.7 245 750.3 249 787.8 243C825.3 237 862.7 221 881.3 213L900 205L900 179L881.3 185C862.7 191 825.3 203 787.8 206C750.3 209 712.7 203 675.2 192C637.7 181 600.3 165 562.8 165C525.3 165 487.7 181 450.2 191C412.7 201 375.3 205 337.8 205C300.3 205 262.7 201 225.2 197C187.7 193 150.3 189 112.8 192C75.3 195 37.7 205 18.8 210L0 215Z" fill="#cacaca"></path><path d="M0 415L18.8 409C37.7 403 75.3 391 112.8 379C150.3 367 187.7 355 225.2 350C262.7 345 300.3 347 337.8 355C375.3 363 412.7 377 450.2 377C487.7 377 525.3 363 562.8 353C600.3 343 637.7 337 675.2 349C712.7 361 750.3 391 787.8 400C825.3 409 862.7 397 881.3 391L900 385L900 203L881.3 211C862.7 219 825.3 235 787.8 241C750.3 247 712.7 243 675.2 235C637.7 227 600.3 215 562.8 216C525.3 217 487.7 231 450.2 236C412.7 241 375.3 237 337.8 237C300.3 237 262.7 241 225.2 242C187.7 243 150.3 241 112.8 243C75.3 245 37.7 251 18.8 254L0 257Z" fill="#c0c0c0"></path><path d="M0 535L18.8 533C37.7 531 75.3 527 112.8 523C150.3 519 187.7 515 225.2 511C262.7 507 300.3 503 337.8 499C375.3 495 412.7 491 450.2 490C487.7 489 525.3 491 562.8 491C600.3 491 637.7 489 675.2 494C712.7 499 750.3 511 787.8 509C825.3 507 862.7 491 881.3 483L900 475L900 383L881.3 389C862.7 395 825.3 407 787.8 398C750.3 389 712.7 359 675.2 347C637.7 335 600.3 341 562.8 351C525.3 361 487.7 375 450.2 375C412.7 375 375.3 361 337.8 353C300.3 345 262.7 343 225.2 348C187.7 353 150.3 365 112.8 377C75.3 389 37.7 401 18.8 407L0 413Z" fill="#b6b6b6"></path><path d="M0 571L18.8 570C37.7 569 75.3 567 112.8 564C150.3 561 187.7 557 225.2 554C262.7 551 300.3 549 337.8 548C375.3 547 412.7 547 450.2 548C487.7 549 525.3 551 562.8 554C600.3 557 637.7 561 675.2 562C712.7 563 750.3 561 787.8 558C825.3 555 862.7 551 881.3 549L900 547L900 473L881.3 481C862.7 489 825.3 505 787.8 507C750.3 509 712.7 497 675.2 492C637.7 487 600.3 489 562.8 489C525.3 489 487.7 487 450.2 488C412.7 489 375.3 493 337.8 497C300.3 501 262.7 505 225.2 509C187.7 513 150.3 517 112.8 521C75.3 525 37.7 529 18.8 531L0 533Z" fill="#acacac"></path><path d="M0 601L18.8 601C37.7 601 75.3 601 112.8 601C150.3 601 187.7 601 225.2 601C262.7 601 300.3 601 337.8 601C375.3 601 412.7 601 450.2 601C487.7 601 525.3 601 562.8 601C600.3 601 637.7 601 675.2 601C712.7 601 750.3 601 787.8 601C825.3 601 862.7 601 881.3 601L900 601L900 545L881.3 547C862.7 549 825.3 553 787.8 556C750.3 559 712.7 561 675.2 560C637.7 559 600.3 555 562.8 552C525.3 549 487.7 547 450.2 546C412.7 545 375.3 545 337.8 546C300.3 547 262.7 549 225.2 552C187.7 555 150.3 559 112.8 562C75.3 565 37.7 567 18.8 568L0 569Z" fill="#a2a2a2"></path></svg>