<svg id="visual" viewBox="0 0 960 540" width="960" height="540" xmlns="http://www.w3.org/2000/svg" xmlns:xlink="http://www.w3.org/1999/xlink" version="1.1"><rect x="0" y="0" width="960" height="540" fill="#171717"></rect><path d="M0 165L22.8 172.8C45.7 180.7 91.3 196.3 137 203.2C182.7 210 228.3 208 274 214.2C319.7 220.3 365.3 234.7 411.2 243.8C457 253 503 257 548.8 247.3C594.7 237.7 640.3 214.3 686 215.5C731.7 216.7 777.3 242.3 823 254.3C868.7 266.3 914.3 264.7 937.2 263.8L960 263L960 0L937.2 0C914.3 0 868.7 0 823 0C777.3 0 731.7 0 686 0C640.3 0 594.7 0 548.8 0C503 0 457 0 411.2 0C365.3 0 319.7 0 274 0C228.3 0 182.7 0 137 0C91.3 0 45.7 0 22.8 0L0 0Z" fill="#222222"></path><path d="M0 169L22.8 170.5C45.7 172 91.3 175 137 179.8C182.7 184.7 228.3 191.3 274 190.2C319.7 189 365.3 180 411.2 172.2C457 164.3 503 157.7 548.8 160.7C594.7 163.7 640.3 176.3 686 176.8C731.7 177.3 777.3 165.7 823 159C868.7 152.3 914.3 150.7 937.2 149.8L960 149L960 0L937.2 0C914.3 0 868.7 0 823 0C777.3 0 731.7 0 686 0C640.3 0 594.7 0 548.8 0C503 0 457 0 411.2 0C365.3 0 319.7 0 274 0C228.3 0 182.7 0 137 0C91.3 0 45.7 0 22.8 0L0 0Z" fill="#1c1c1c"></path><path d="M0 154L22.8 155.5C45.7 157 91.3 160 137 159C182.7 158 228.3 153 274 144.7C319.7 136.3 365.3 124.7 411.2 129C457 133.3 503 153.7 548.8 161C594.7 168.3 640.3 162.7 686 160.3C731.7 158 777.3 159 823 158.7C868.7 158.3 914.3 156.7 937.2 155.8L960 155L960 0L937.2 0C914.3 0 868.7 0 823 0C777.3 0 731.7 0 686 0C640.3 0 594.7 0 548.8 0C503 0 457 0 411.2 0C365.3 0 319.7 0 274 0C228.3 0 182.7 0 137 0C91.3 0 45.7 0 22.8 0L0 0Z" fill="#171717"></path><path d="M0 75L22.8 74.3C45.7 73.7 91.3 72.3 137 80.7C182.7 89 228.3 107 274 108.7C319.7 110.3 365.3 95.7 411.2 95.7C457 95.7 503 110.3 548.8 109.8C594.7 109.3 640.3 93.7 686 90.7C731.7 87.7 777.3 97.3 823 101C868.7 104.7 914.3 102.3 937.2 101.2L960 100L960 0L937.2 0C914.3 0 868.7 0 823 0C777.3 0 731.7 0 686 0C640.3 0 594.7 0 548.8 0C503 0 457 0 411.2 0C365.3 0 319.7 0 274 0C228.3 0 182.7 0 137 0C91.3 0 45.7 0 22.8 0L0 0Z" fill="#111111"></path><path d="M0 48L22.8 50C45.7 52 91.3 56 137 59.2C182.7 62.3 228.3 64.7 274 64.2C319.7 63.7 365.3 60.3 411.2 60.2C457 60 503 63 548.8 66.2C594.7 69.3 640.3 72.7 686 71.7C731.7 70.7 777.3 65.3 823 58.2C868.7 51 914.3 42 937.2 37.5L960 33L960 0L937.2 0C914.3 0 868.7 0 823 0C777.3 0 731.7 0 686 0C640.3 0 594.7 0 548.8 0C503 0 457 0 411.2 0C365.3 0 319.7 0 274 0C228.3 0 182.7 0 137 0C91.3 0 45.7 0 22.8 0L0 0Z" fill="#080808"></path></svg>