<svg id="visual" viewBox="0 0 900 600" width="900" height="600" xmlns="http://www.w3.org/2000/svg" xmlns:xlink="http://www.w3.org/1999/xlink" version="1.1"><path d="M0 85L37.5 84C75 83 150 81 225 77C300 73 375 67 450 63C525 59 600 57 675 60C750 63 825 71 862.5 75L900 79L900 0L862.5 0C825 0 750 0 675 0C600 0 525 0 450 0C375 0 300 0 225 0C150 0 75 0 37.5 0L0 0Z" fill="#2f2f2f"></path><path d="M0 199L37.5 197C75 195 150 191 225 182C300 173 375 159 450 176C525 193 600 241 675 236C750 231 825 173 862.5 144L900 115L900 77L862.5 73C825 69 750 61 675 58C600 55 525 57 450 61C375 65 300 71 225 75C150 79 75 81 37.5 82L0 83Z" fill="#232323"></path><path d="M0 325L37.5 324C75 323 150 321 225 307C300 293 375 267 450 270C525 273 600 305 675 303C750 301 825 265 862.5 247L900 229L900 113L862.5 142C825 171 750 229 675 234C600 239 525 191 450 174C375 157 300 171 225 180C150 189 75 193 37.5 195L0 197Z" fill="#181818"></path><path d="M0 439L37.5 439C75 439 150 439 225 440C300 441 375 443 450 435C525 427 600 409 675 409C750 409 825 427 862.5 436L900 445L900 227L862.5 245C825 263 750 299 675 301C600 303 525 271 450 268C375 265 300 291 225 305C150 319 75 321 37.5 322L0 323Z" fill="#0b0b0b"></path><path d="M0 505L37.5 507C75 509 150 513 225 516C300 519 375 521 450 514C525 507 600 491 675 488C750 485 825 495 862.5 500L900 505L900 443L862.5 434C825 425 750 407 675 407C600 407 525 425 450 433C375 441 300 439 225 438C150 437 75 437 37.5 437L0 437Z" fill="#0a0a0a"></path><path d="M0 547L37.5 546C75 545 150 543 225 550C300 557 375 573 450 572C525 571 600 553 675 552C750 551 825 567 862.5 575L900 583L900 503L862.5 498C825 493 750 483 675 486C600 489 525 505 450 512C375 519 300 517 225 514C150 511 75 507 37.5 505L0 503Z" fill="#090909"></path><path d="M0 601L37.5 601C75 601 150 601 225 601C300 601 375 601 450 601C525 601 600 601 675 601C750 601 825 601 862.5 601L900 601L900 581L862.5 573C825 565 750 549 675 550C600 551 525 569 450 570C375 571 300 555 225 548C150 541 75 543 37.5 544L0 545Z" fill="#080808"></path></svg>