<svg id="visual" viewBox="0 0 900 600" width="900" height="600" xmlns="http://www.w3.org/2000/svg" xmlns:xlink="http://www.w3.org/1999/xlink" version="1.1"><path d="M0 145L13.7 136C27.3 127 54.7 109 82 117C109.3 125 136.7 159 163.8 165C191 171 218 149 245.2 148C272.3 147 299.7 167 327 169C354.3 171 381.7 155 409 160C436.3 165 463.7 191 491 189C518.3 187 545.7 157 573 143C600.3 129 627.7 131 654.8 124C682 117 709 101 736.2 92C763.3 83 790.7 81 818 88C845.3 95 872.7 111 886.3 119L900 127L900 0L886.3 0C872.7 0 845.3 0 818 0C790.7 0 763.3 0 736.2 0C709 0 682 0 654.8 0C627.7 0 600.3 0 573 0C545.7 0 518.3 0 491 0C463.7 0 436.3 0 409 0C381.7 0 354.3 0 327 0C299.7 0 272.3 0 245.2 0C218 0 191 0 163.8 0C136.7 0 109.3 0 82 0C54.7 0 27.3 0 13.7 0L0 0Z" fill="#0c0d0e"></path><path d="M0 223L13.7 218C27.3 213 54.7 203 82 205C109.3 207 136.7 221 163.8 224C191 227 218 219 245.2 221C272.3 223 299.7 235 327 241C354.3 247 381.7 247 409 249C436.3 251 463.7 255 491 249C518.3 243 545.7 227 573 222C600.3 217 627.7 223 654.8 222C682 221 709 213 736.2 207C763.3 201 790.7 197 818 194C845.3 191 872.7 189 886.3 188L900 187L900 125L886.3 117C872.7 109 845.3 93 818 86C790.7 79 763.3 81 736.2 90C709 99 682 115 654.8 122C627.7 129 600.3 127 573 141C545.7 155 518.3 185 491 187C463.7 189 436.3 163 409 158C381.7 153 354.3 169 327 167C299.7 165 272.3 145 245.2 146C218 147 191 169 163.8 163C136.7 157 109.3 123 82 115C54.7 107 27.3 125 13.7 134L0 143Z" fill="#090b0b"></path><path d="M0 313L13.7 308C27.3 303 54.7 293 82 290C109.3 287 136.7 291 163.8 290C191 289 218 283 245.2 291C272.3 299 299.7 321 327 333C354.3 345 381.7 347 409 348C436.3 349 463.7 349 491 342C518.3 335 545.7 321 573 307C600.3 293 627.7 279 654.8 269C682 259 709 253 736.2 254C763.3 255 790.7 263 818 268C845.3 273 872.7 275 886.3 276L900 277L900 185L886.3 186C872.7 187 845.3 189 818 192C790.7 195 763.3 199 736.2 205C709 211 682 219 654.8 220C627.7 221 600.3 215 573 220C545.7 225 518.3 241 491 247C463.7 253 436.3 249 409 247C381.7 245 354.3 245 327 239C299.7 233 272.3 221 245.2 219C218 217 191 225 163.8 222C136.7 219 109.3 205 82 203C54.7 201 27.3 211 13.7 216L0 221Z" fill="#070808"></path><path d="M0 505L13.7 499C27.3 493 54.7 481 82 468C109.3 455 136.7 441 163.8 439C191 437 218 447 245.2 454C272.3 461 299.7 465 327 471C354.3 477 381.7 485 409 494C436.3 503 463.7 513 491 508C518.3 503 545.7 483 573 469C600.3 455 627.7 447 654.8 450C682 453 709 467 736.2 472C763.3 477 790.7 473 818 472C845.3 471 872.7 473 886.3 474L900 475L900 275L886.3 274C872.7 273 845.3 271 818 266C790.7 261 763.3 253 736.2 252C709 251 682 257 654.8 267C627.7 277 600.3 291 573 305C545.7 319 518.3 333 491 340C463.7 347 436.3 347 409 346C381.7 345 354.3 343 327 331C299.7 319 272.3 297 245.2 289C218 281 191 287 163.8 288C136.7 289 109.3 285 82 288C54.7 291 27.3 301 13.7 306L0 311Z" fill="#040505"></path><path d="M0 601L13.7 601C27.3 601 54.7 601 82 601C109.3 601 136.7 601 163.8 601C191 601 218 601 245.2 601C272.3 601 299.7 601 327 601C354.3 601 381.7 601 409 601C436.3 601 463.7 601 491 601C518.3 601 545.7 601 573 601C600.3 601 627.7 601 654.8 601C682 601 709 601 736.2 601C763.3 601 790.7 601 818 601C845.3 601 872.7 601 886.3 601L900 601L900 473L886.3 472C872.7 471 845.3 469 818 470C790.7 471 763.3 475 736.2 470C709 465 682 451 654.8 448C627.7 445 600.3 453 573 467C545.7 481 518.3 501 491 506C463.7 511 436.3 501 409 492C381.7 483 354.3 475 327 469C299.7 463 272.3 459 245.2 452C218 445 191 435 163.8 437C136.7 439 109.3 453 82 466C54.7 479 27.3 491 13.7 497L0 503Z" fill="#020202"></path></svg>