<svg id="visual" viewBox="0 0 960 540" width="960" height="540" xmlns="http://www.w3.org/2000/svg" xmlns:xlink="http://www.w3.org/1999/xlink" version="1.1"><path d="M0 33L14.5 33C29 33 58 33 87.2 33C116.3 33 145.7 33 174.8 35.8C204 38.7 233 44.3 262 41.7C291 39 320 28 349 28.8C378 29.7 407 42.3 436.2 46C465.3 49.7 494.7 44.3 523.8 42.5C553 40.7 582 42.3 611 40.5C640 38.7 669 33.3 698 29.8C727 26.3 756 24.7 785.2 24.7C814.3 24.7 843.7 26.3 872.8 32.5C902 38.7 931 49.3 945.5 54.7L960 60L960 0L945.5 0C931 0 902 0 872.8 0C843.7 0 814.3 0 785.2 0C756 0 727 0 698 0C669 0 640 0 611 0C582 0 553 0 523.8 0C494.7 0 465.3 0 436.2 0C407 0 378 0 349 0C320 0 291 0 262 0C233 0 204 0 174.8 0C145.7 0 116.3 0 87.2 0C58 0 29 0 14.5 0L0 0Z" fill="#f0d7ce"></path><path d="M0 55L14.5 54.2C29 53.3 58 51.7 87.2 53.5C116.3 55.3 145.7 60.7 174.8 66C204 71.3 233 76.7 262 72.2C291 67.7 320 53.3 349 56C378 58.7 407 78.3 436.2 83.7C465.3 89 494.7 80 523.8 75.5C553 71 582 71 611 68.3C640 65.7 669 60.3 698 56.8C727 53.3 756 51.7 785.2 50.8C814.3 50 843.7 50 872.8 59C902 68 931 86 945.5 95L960 104L960 58L945.5 52.7C931 47.3 902 36.7 872.8 30.5C843.7 24.3 814.3 22.7 785.2 22.7C756 22.7 727 24.3 698 27.8C669 31.3 640 36.7 611 38.5C582 40.3 553 38.7 523.8 40.5C494.7 42.3 465.3 47.7 436.2 44C407 40.3 378 27.7 349 26.8C320 26 291 37 262 39.7C233 42.3 204 36.7 174.8 33.8C145.7 31 116.3 31 87.2 31C58 31 29 31 14.5 31L0 31Z" fill="#e7cdc3"></path><path d="M0 93L14.5 90.3C29 87.7 58 82.3 87.2 82.3C116.3 82.3 145.7 87.7 174.8 93.8C204 100 233 107 262 101.5C291 96 320 78 349 78C378 78 407 96 436.2 105C465.3 114 494.7 114 523.8 113.2C553 112.3 582 110.7 611 103.5C640 96.3 669 83.7 698 79.2C727 74.7 756 78.3 785.2 80.2C814.3 82 843.7 82 872.8 88.3C902 94.7 931 107.3 945.5 113.7L960 120L960 102L945.5 93C931 84 902 66 872.8 57C843.7 48 814.3 48 785.2 48.8C756 49.7 727 51.3 698 54.8C669 58.3 640 63.7 611 66.3C582 69 553 69 523.8 73.5C494.7 78 465.3 87 436.2 81.7C407 76.3 378 56.7 349 54C320 51.3 291 65.7 262 70.2C233 74.7 204 69.3 174.8 64C145.7 58.7 116.3 53.3 87.2 51.5C58 49.7 29 51.3 14.5 52.2L0 53Z" fill="#dec3b9"></path><path d="M0 163L14.5 165.7C29 168.3 58 173.7 87.2 171.8C116.3 170 145.7 161 174.8 155.7C204 150.3 233 148.7 262 142.3C291 136 320 125 349 134C378 143 407 172 436.2 180.2C465.3 188.3 494.7 175.7 523.8 173.8C553 172 582 181 611 175.7C640 170.3 669 150.7 698 139.8C727 129 756 127 785.2 125.2C814.3 123.3 843.7 121.7 872.8 132.5C902 143.3 931 166.7 945.5 178.3L960 190L960 118L945.5 111.7C931 105.3 902 92.7 872.8 86.3C843.7 80 814.3 80 785.2 78.2C756 76.3 727 72.7 698 77.2C669 81.7 640 94.3 611 101.5C582 108.7 553 110.3 523.8 111.2C494.7 112 465.3 112 436.2 103C407 94 378 76 349 76C320 76 291 94 262 99.5C233 105 204 98 174.8 91.8C145.7 85.7 116.3 80.3 87.2 80.3C58 80.3 29 85.7 14.5 88.3L0 91Z" fill="#d6baaf"></path><path d="M0 174L14.5 177.5C29 181 58 188 87.2 188C116.3 188 145.7 181 174.8 177.5C204 174 233 174 262 170.3C291 166.7 320 159.3 349 166.5C378 173.7 407 195.3 436.2 199.8C465.3 204.3 494.7 191.7 523.8 191.7C553 191.7 582 204.3 611 202.5C640 200.7 669 184.3 698 174.5C727 164.7 756 161.3 785.2 157.8C814.3 154.3 843.7 150.7 872.8 161.3C902 172 931 197 945.5 209.5L960 222L960 188L945.5 176.3C931 164.7 902 141.3 872.8 130.5C843.7 119.7 814.3 121.3 785.2 123.2C756 125 727 127 698 137.8C669 148.7 640 168.3 611 173.7C582 179 553 170 523.8 171.8C494.7 173.7 465.3 186.3 436.2 178.2C407 170 378 141 349 132C320 123 291 134 262 140.3C233 146.7 204 148.3 174.8 153.7C145.7 159 116.3 168 87.2 169.8C58 171.7 29 166.3 14.5 163.7L0 161Z" fill="#d1b4a9"></path><path d="M0 244L14.5 252.2C29 260.3 58 276.7 87.2 274.8C116.3 273 145.7 253 174.8 262C204 271 233 309 262 318C291 327 320 307 349 310.5C378 314 407 341 436.2 334.7C465.3 328.3 494.7 288.7 523.8 275.2C553 261.7 582 274.3 611 283.3C640 292.3 669 297.7 698 303.2C727 308.7 756 314.3 785.2 309.8C814.3 305.3 843.7 290.7 872.8 288.8C902 287 931 298 945.5 303.5L960 309L960 220L945.5 207.5C931 195 902 170 872.8 159.3C843.7 148.7 814.3 152.3 785.2 155.8C756 159.3 727 162.7 698 172.5C669 182.3 640 198.7 611 200.5C582 202.3 553 189.7 523.8 189.7C494.7 189.7 465.3 202.3 436.2 197.8C407 193.3 378 171.7 349 164.5C320 157.3 291 164.7 262 168.3C233 172 204 172 174.8 175.5C145.7 179 116.3 186 87.2 186C58 186 29 179 14.5 175.5L0 172Z" fill="#d1b4a9"></path><path d="M0 287L14.5 293.3C29 299.7 58 312.3 87.2 314.2C116.3 316 145.7 307 174.8 318.7C204 330.3 233 362.7 262 368C291 373.3 320 351.7 349 355.3C378 359 407 388 436.2 378.2C465.3 368.3 494.7 319.7 523.8 305.2C553 290.7 582 310.3 611 325.7C640 341 669 352 698 359.3C727 366.7 756 370.3 785.2 361.3C814.3 352.3 843.7 330.7 872.8 328.8C902 327 931 345 945.5 354L960 363L960 307L945.5 301.5C931 296 902 285 872.8 286.8C843.7 288.7 814.3 303.3 785.2 307.8C756 312.3 727 306.7 698 301.2C669 295.7 640 290.3 611 281.3C582 272.3 553 259.7 523.8 273.2C494.7 286.7 465.3 326.3 436.2 332.7C407 339 378 312 349 308.5C320 305 291 325 262 316C233 307 204 269 174.8 260C145.7 251 116.3 271 87.2 272.8C58 274.7 29 258.3 14.5 250.2L0 242Z" fill="#d6baaf"></path><path d="M0 411L14.5 421C29 431 58 451 87.2 459.2C116.3 467.3 145.7 463.7 174.8 462.7C204 461.7 233 463.3 262 467C291 470.7 320 476.3 349 478.2C378 480 407 478 436.2 476.2C465.3 474.3 494.7 472.7 523.8 468.2C553 463.7 582 456.3 611 455.3C640 454.3 669 459.7 698 457.8C727 456 756 447 785.2 448.8C814.3 450.7 843.7 463.3 872.8 473.3C902 483.3 931 490.7 945.5 494.3L960 498L960 361L945.5 352C931 343 902 325 872.8 326.8C843.7 328.7 814.3 350.3 785.2 359.3C756 368.3 727 364.7 698 357.3C669 350 640 339 611 323.7C582 308.3 553 288.7 523.8 303.2C494.7 317.7 465.3 366.3 436.2 376.2C407 386 378 357 349 353.3C320 349.7 291 371.3 262 366C233 360.7 204 328.3 174.8 316.7C145.7 305 116.3 314 87.2 312.2C58 310.3 29 297.7 14.5 291.3L0 285Z" fill="#dec3b9"></path><path d="M0 492L14.5 497.5C29 503 58 514 87.2 517.7C116.3 521.3 145.7 517.7 174.8 517.7C204 517.7 233 521.3 262 520.5C291 519.7 320 514.3 349 512.5C378 510.7 407 512.3 436.2 510.5C465.3 508.7 494.7 503.3 523.8 500.7C553 498 582 498 611 498.8C640 499.7 669 501.3 698 500.3C727 499.3 756 495.7 785.2 495.7C814.3 495.7 843.7 499.3 872.8 504.8C902 510.3 931 517.7 945.5 521.3L960 525L960 496L945.5 492.3C931 488.7 902 481.3 872.8 471.3C843.7 461.3 814.3 448.7 785.2 446.8C756 445 727 454 698 455.8C669 457.7 640 452.3 611 453.3C582 454.3 553 461.7 523.8 466.2C494.7 470.7 465.3 472.3 436.2 474.2C407 476 378 478 349 476.2C320 474.3 291 468.7 262 465C233 461.3 204 459.7 174.8 460.7C145.7 461.7 116.3 465.3 87.2 457.2C58 449 29 429 14.5 419L0 409Z" fill="#e7cdc3"></path><path d="M0 541L14.5 541C29 541 58 541 87.2 541C116.3 541 145.7 541 174.8 541C204 541 233 541 262 541C291 541 320 541 349 541C378 541 407 541 436.2 541C465.3 541 494.7 541 523.8 541C553 541 582 541 611 541C640 541 669 541 698 541C727 541 756 541 785.2 541C814.3 541 843.7 541 872.8 541C902 541 931 541 945.5 541L960 541L960 523L945.5 519.3C931 515.7 902 508.3 872.8 502.8C843.7 497.3 814.3 493.7 785.2 493.7C756 493.7 727 497.3 698 498.3C669 499.3 640 497.7 611 496.8C582 496 553 496 523.8 498.7C494.7 501.3 465.3 506.7 436.2 508.5C407 510.3 378 508.7 349 510.5C320 512.3 291 517.7 262 518.5C233 519.3 204 515.7 174.8 515.7C145.7 515.7 116.3 519.3 87.2 515.7C58 512 29 501 14.5 495.5L0 490Z" fill="#f0d7ce"></path></svg>